<svg width="17" height="20" viewBox="0 0 17 20" fill="none" xmlns="http://www.w3.org/2000/svg">
<path d="M15.4166 0.25H1.91663C1.5188 0.25 1.13727 0.408035 0.855966 0.68934C0.574661 0.970644 0.416626 1.35218 0.416626 1.75V18.25C0.416626 18.6478 0.574661 19.0294 0.855966 19.3107C1.13727 19.592 1.5188 19.75 1.91663 19.75H15.4166C15.8145 19.75 16.196 19.592 16.4773 19.3107C16.7586 19.0294 16.9166 18.6478 16.9166 18.25V1.75C16.9166 1.35218 16.7586 0.970644 16.4773 0.68934C16.196 0.408035 15.8145 0.25 15.4166 0.25ZM10.9166 11.5H15.4166V13.75H7.16663V11.5H10.9166ZM11.6666 10V7.75H15.4166V10H11.6666ZM15.4166 1.75V6.25H10.9166C10.7177 6.25 10.5269 6.32902 10.3863 6.46967C10.2456 6.61032 10.1666 6.80109 10.1666 7V10H6.41663C6.21771 10 6.02695 10.079 5.8863 10.2197C5.74564 10.3603 5.66663 10.5511 5.66663 10.75V13.75H1.91663V1.75H15.4166ZM15.4166 18.25H1.91663V15.25H15.4166V18.25Z" fill="#F5333F"/>
</svg>
